<svg width="45" height="45" viewBox="0 0 45 45" fill="none" xmlns="http://www.w3.org/2000/svg">
<circle cx="22.5" cy="22.5" r="22" fill="white" stroke="#F75531"/>
<path d="M29.4533 9.5592C26.278 9.5592 23.4723 11.1893 22 13.6456C20.5277 11.1893 17.7221 9.5592 14.5467 9.5592C9.83403 9.5592 6 13.1536 6 17.5718C6 21.1093 8.61966 25.3464 13.7862 30.1655C17.5429 33.6695 21.2394 36.155 21.3949 36.2592C21.5759 36.3803 21.788 36.4409 22 36.4409C22.212 36.4409 22.4241 36.3803 22.605 36.2592C22.7606 36.155 26.4571 33.6695 30.2138 30.1655C35.3803 25.3464 38 21.1093 38 17.5718C38 13.1536 34.166 9.5592 29.4533 9.5592ZM28.7643 28.7632C25.9984 31.3457 23.1988 33.4022 22 34.2501C20.8012 33.4021 18.0016 31.3457 15.2357 28.7632C10.5561 24.3941 8.08262 20.5241 8.08262 17.5718C8.08262 14.2302 10.9824 11.5117 14.5467 11.5117C17.8289 11.5117 20.5884 13.8135 20.9656 16.866C21.0264 17.3584 21.4713 17.7298 22 17.7298C22.5287 17.7298 22.9735 17.3584 23.0344 16.866C23.4117 13.8135 26.1711 11.5117 29.4533 11.5117C33.0176 11.5117 35.9174 14.2302 35.9174 17.5718C35.9174 20.5241 33.4439 24.3941 28.7643 28.7632Z" fill="#F75531"/>
</svg>
